<svg xmlns="http://www.w3.org/2000/svg" width="29.328" height="32.005" viewBox="0 0 29.328 32.005">
  <g id="power_3917057" transform="translate(0 0)">
    <path id="Caminho_1097" data-name="Caminho 1097" d="M40.085,62.03h0a1.359,1.359,0,0,0,.838,1.234A12.067,12.067,0,1,1,24.092,74.226h0A12,12,0,0,1,31.25,63.266a1.363,1.363,0,0,0,.838-1.237h0a1.333,1.333,0,0,0-1.831-1.238,14.66,14.66,0,1,0,11.663,0,1.333,1.333,0,0,0-1.835,1.239Z" transform="translate(-21.424 -56.9)" fill="#fff"/>
    <path id="Caminho_1098" data-name="Caminho 1098" d="M236.119,0h0a1.333,1.333,0,0,1,1.333,1.333v8a1.333,1.333,0,0,1-1.333,1.333h0a1.333,1.333,0,0,1-1.333-1.333v-8A1.333,1.333,0,0,1,236.119,0Z" transform="translate(-221.457 0)" fill="#fff"/>
  </g>
</svg>
