<svg xmlns="http://www.w3.org/2000/svg" width="25.619" height="25.619" viewBox="0 0 25.619 25.619">
  <g id="Grupo_2838" data-name="Grupo 2838" transform="translate(-51.677 -540.131)">
    <g id="Grupo_113" data-name="Grupo 113" transform="translate(10.927 40)">
      <path id="Icon_feather-message-square" data-name="Icon feather-message-square" d="M28.619,20.579a2.68,2.68,0,0,1-2.68,2.68H9.86L4.5,28.619V7.18A2.68,2.68,0,0,1,7.18,4.5H25.939a2.68,2.68,0,0,1,2.68,2.68Z" transform="translate(37 496.381)" fill="none" stroke="#fff" stroke-linecap="round" stroke-linejoin="round" stroke-width="1.5" opacity="0.8"/>
    </g>
    <path id="Icon_feather-message-square-2" data-name="Icon feather-message-square" d="M28.619,20.579a2.68,2.68,0,0,1-2.68,2.68H9.86L4.5,28.619V7.18A2.68,2.68,0,0,1,7.18,4.5H25.939a2.68,2.68,0,0,1,2.68,2.68Z" transform="translate(47.927 536.381)" fill="none" stroke="#fff" stroke-linecap="round" stroke-linejoin="round" stroke-width="1.5" opacity="0.8"/>
  </g>
</svg>
