<svg xmlns="http://www.w3.org/2000/svg" width="33.519" height="32.5" viewBox="0 0 33.519 32.5">
  <g id="Grupo_2836" data-name="Grupo 2836" transform="translate(-37.25 -324.5)">
    <g id="Icon_feather-shopping-cart" data-name="Icon feather-shopping-cart" transform="translate(36.5 323.75)" opacity="0.8">
      <path id="Caminho_142" data-name="Caminho 142" d="M17.725,32.862A2.862,2.862,0,1,1,14.862,30,2.862,2.862,0,0,1,17.725,32.862Z" transform="translate(-1.719 -3.225)" fill="none" stroke="#fff" stroke-linecap="round" stroke-linejoin="round" stroke-width="1.5"/>
      <path id="Caminho_145" data-name="Caminho 145" d="M17.725,32.862A2.862,2.862,0,1,1,14.862,30,2.862,2.862,0,0,1,17.725,32.862Z" transform="translate(14.775 -3.225)" fill="none" stroke="#fff" stroke-linecap="round" stroke-linejoin="round" stroke-width="1.5"/>
      <path id="Caminho_144" data-name="Caminho 144" d="M1.5,1.5H7.322l3.9,19.488a2.911,2.911,0,0,0,2.911,2.343H28.279a2.911,2.911,0,0,0,2.911-2.343L33.519,8.777H8.777" fill="none" stroke="#fff" stroke-linecap="round" stroke-linejoin="round" stroke-width="1.5"/>
    </g>
  </g>
</svg>
