<svg xmlns="http://www.w3.org/2000/svg" width="30.045" height="30.045" viewBox="0 0 30.045 30.045">
  <g id="Grupo_2835" data-name="Grupo 2835" transform="translate(-52 -379.955)">
    <path id="users_3914353" d="M9.389,16.274a5.633,5.633,0,1,1,5.633-5.633A5.633,5.633,0,0,1,9.389,16.274Zm0-8.763a3.13,3.13,0,1,0,3.13,3.13A3.13,3.13,0,0,0,9.389,7.511Zm9.389,21.282v-.626A9.389,9.389,0,0,0,0,28.167v.626a1.252,1.252,0,1,0,2.5,0v-.626a6.885,6.885,0,0,1,13.77,0v.626a1.252,1.252,0,1,0,2.5,0Zm11.267-6.259A8.763,8.763,0,0,0,15.439,16a1.252,1.252,0,1,0,1.67,1.865,6.259,6.259,0,0,1,10.432,4.666,1.252,1.252,0,0,0,2.5,0ZM21.908,11.267a5.633,5.633,0,1,1,5.633-5.633,5.633,5.633,0,0,1-5.633,5.633Zm0-8.763a3.13,3.13,0,1,0,3.13,3.13A3.13,3.13,0,0,0,21.908,2.5Z" transform="translate(52 379.955)" fill="#fff"/>
  </g>
</svg>
